<svg xmlns="http://www.w3.org/2000/svg" data-name="Layer 1" viewBox="0 0 64 80" x="0px" y="0px"><title>1</title><path d="M23,50.09V47.68a1,1,0,1,0-1.93,0v2.41a1,1,0,1,0,1.93,0Z"/><path d="M21.1,22.07v2.41a1,1,0,1,0,1.93,0V22.07a1,1,0,1,0-1.93,0Z"/><path d="M14.89,27.09,13.2,25.38a1,1,0,0,0-1.36,0,1,1,0,0,0,0,1.38l1.67,1.7a1,1,0,0,0,.69.29,1,1,0,0,0,.69-.29A1,1,0,0,0,14.89,27.09Z"/><path d="M10.94,34.75H8.56a1,1,0,0,0,0,2h2.38a1,1,0,0,0,0-2Z"/><path d="M12.51,46.36a1,1,0,0,0,.69-.3l1.69-1.69a1,1,0,0,0,0-1.39,1,1,0,0,0-1.38,0l-1.67,1.71a1,1,0,0,0,0,1.37A.91.91,0,0,0,12.51,46.36Z"/><path d="M31.62,46.36a.93.93,0,0,0,.68-.3,1,1,0,0,0,0-1.37L30.61,43a1,1,0,0,0-1.36,0,1,1,0,0,0,0,1.39l1.68,1.69A1,1,0,0,0,31.62,46.36Z"/><path d="M30.93,25.38l-1.68,1.71a1,1,0,0,0,0,1.37.91.91,0,0,0,.69.29.9.9,0,0,0,.67-.29l1.69-1.7a1,1,0,0,0,0-1.38A1,1,0,0,0,30.93,25.38Z"/><path d="M22.07,53.67a18,18,0,0,1,0-35.9A17.86,17.86,0,0,1,39.62,33l4.32-.07a22.18,22.18,0,0,0-4.33-10.69c-.2-.27-.42-.51-.63-.76l2-2.05,1.77,1.79,2.8-2.84L39.7,12.41l-2.82,2.84L38.6,17l-2,2c-.25-.22-.49-.43-.75-.64A21.64,21.64,0,0,0,24,13.52h0V11h1.51a2.49,2.49,0,0,0,0-5H18.62a2.49,2.49,0,0,0,0,5h1.51v2.57A22.31,22.31,0,0,0,22.07,58,22.16,22.16,0,0,0,44,37.79l-4.33.07A17.84,17.84,0,0,1,22.07,53.67Z"/><path d="M61.65,35.1l2.19-3.81a1.34,1.34,0,0,0,0-1.26,1.26,1.26,0,0,0-1.09-.63H53.64a1.28,1.28,0,0,0-.93.42L49,34l-23.66.37s0-.09-.05-.13A3.53,3.53,0,1,0,25.31,37a.35.35,0,0,0,0-.11l23.78-.37,3.62,3.87a1.27,1.27,0,0,0,.9.4h9.11a1.25,1.25,0,0,0,1.09-.65,1.34,1.34,0,0,0,0-1.26Zm-7.47,3.18-1.66-1.79,7-.11,1.09,1.9Zm5.3-4.43-7.1.11,1.83-2h6.37Z"/></svg>